%TF.GenerationSoftware,KiCad,Pcbnew,9.0.2*%
%TF.CreationDate,2025-06-02T21:46:20-05:00*%
%TF.ProjectId,booster_converter,626f6f73-7465-4725-9f63-6f6e76657274,rev?*%
%TF.SameCoordinates,Original*%
%TF.FileFunction,Copper,L2,Bot*%
%TF.FilePolarity,Positive*%
%FSLAX46Y46*%
G04 Gerber Fmt 4.6, Leading zero omitted, Abs format (unit mm)*
G04 Created by KiCad (PCBNEW 9.0.2) date 2025-06-02 21:46:20*
%MOMM*%
%LPD*%
G01*
G04 APERTURE LIST*
%ADD10C,0.300000*%
%TA.AperFunction,NonConductor*%
%ADD11C,0.300000*%
%TD*%
%TA.AperFunction,ComponentPad*%
%ADD12R,1.700000X1.700000*%
%TD*%
%TA.AperFunction,ComponentPad*%
%ADD13C,1.700000*%
%TD*%
%TA.AperFunction,ComponentPad*%
%ADD14R,1.800000X1.800000*%
%TD*%
%TA.AperFunction,ComponentPad*%
%ADD15C,1.800000*%
%TD*%
%TA.AperFunction,ViaPad*%
%ADD16C,0.600000*%
%TD*%
%TA.AperFunction,Conductor*%
%ADD17C,0.500000*%
%TD*%
G04 APERTURE END LIST*
D10*
D11*
X182945489Y-69800828D02*
X182945489Y-68300828D01*
X182945489Y-69015114D02*
X182088346Y-69015114D01*
X182088346Y-69800828D02*
X182088346Y-68300828D01*
X180802631Y-69729400D02*
X180945488Y-69800828D01*
X180945488Y-69800828D02*
X181231203Y-69800828D01*
X181231203Y-69800828D02*
X181374060Y-69729400D01*
X181374060Y-69729400D02*
X181445488Y-69586542D01*
X181445488Y-69586542D02*
X181445488Y-69015114D01*
X181445488Y-69015114D02*
X181374060Y-68872257D01*
X181374060Y-68872257D02*
X181231203Y-68800828D01*
X181231203Y-68800828D02*
X180945488Y-68800828D01*
X180945488Y-68800828D02*
X180802631Y-68872257D01*
X180802631Y-68872257D02*
X180731203Y-69015114D01*
X180731203Y-69015114D02*
X180731203Y-69157971D01*
X180731203Y-69157971D02*
X181445488Y-69300828D01*
X179874060Y-69800828D02*
X180016917Y-69729400D01*
X180016917Y-69729400D02*
X180088346Y-69586542D01*
X180088346Y-69586542D02*
X180088346Y-68300828D01*
X179302632Y-68800828D02*
X179302632Y-70300828D01*
X179302632Y-68872257D02*
X179159775Y-68800828D01*
X179159775Y-68800828D02*
X178874060Y-68800828D01*
X178874060Y-68800828D02*
X178731203Y-68872257D01*
X178731203Y-68872257D02*
X178659775Y-68943685D01*
X178659775Y-68943685D02*
X178588346Y-69086542D01*
X178588346Y-69086542D02*
X178588346Y-69515114D01*
X178588346Y-69515114D02*
X178659775Y-69657971D01*
X178659775Y-69657971D02*
X178731203Y-69729400D01*
X178731203Y-69729400D02*
X178874060Y-69800828D01*
X178874060Y-69800828D02*
X179159775Y-69800828D01*
X179159775Y-69800828D02*
X179302632Y-69729400D01*
D12*
%TO.P,U1,1,1-VIN*%
%TO.N,+5V*%
X173800000Y-60900000D03*
D13*
%TO.P,U1,2,2-GND*%
%TO.N,GND*%
X171260000Y-60900000D03*
%TD*%
D12*
%TO.P,J1,1,Pin_1*%
%TO.N,+5V*%
X165717500Y-66350000D03*
D13*
%TO.P,J1,2,Pin_2*%
%TO.N,GND*%
X165717500Y-63810000D03*
%TD*%
D14*
%TO.P,D1,1,K*%
%TO.N,Net-(D1-K)*%
X175000000Y-70000000D03*
D15*
%TO.P,D1,2,A*%
%TO.N,+5V*%
X172460000Y-70000000D03*
%TD*%
D16*
%TO.N,+5V*%
X178000000Y-69000000D03*
%TD*%
D17*
%TO.N,+5V*%
X173800000Y-64800000D02*
X173800000Y-60900000D01*
X178000000Y-69000000D02*
X173800000Y-64800000D01*
%TD*%
M02*
