%TF.GenerationSoftware,KiCad,Pcbnew,9.0.2*%
%TF.CreationDate,2025-06-02T21:46:20-05:00*%
%TF.ProjectId,booster_converter,626f6f73-7465-4725-9f63-6f6e76657274,rev?*%
%TF.SameCoordinates,Original*%
%TF.FileFunction,Copper,L1,Top*%
%TF.FilePolarity,Positive*%
%FSLAX46Y46*%
G04 Gerber Fmt 4.6, Leading zero omitted, Abs format (unit mm)*
G04 Created by KiCad (PCBNEW 9.0.2) date 2025-06-02 21:46:20*
%MOMM*%
%LPD*%
G01*
G04 APERTURE LIST*
G04 Aperture macros list*
%AMRoundRect*
0 Rectangle with rounded corners*
0 $1 Rounding radius*
0 $2 $3 $4 $5 $6 $7 $8 $9 X,Y pos of 4 corners*
0 Add a 4 corners polygon primitive as box body*
4,1,4,$2,$3,$4,$5,$6,$7,$8,$9,$2,$3,0*
0 Add four circle primitives for the rounded corners*
1,1,$1+$1,$2,$3*
1,1,$1+$1,$4,$5*
1,1,$1+$1,$6,$7*
1,1,$1+$1,$8,$9*
0 Add four rect primitives between the rounded corners*
20,1,$1+$1,$2,$3,$4,$5,0*
20,1,$1+$1,$4,$5,$6,$7,0*
20,1,$1+$1,$6,$7,$8,$9,0*
20,1,$1+$1,$8,$9,$2,$3,0*%
G04 Aperture macros list end*
%TA.AperFunction,ComponentPad*%
%ADD10R,1.700000X1.700000*%
%TD*%
%TA.AperFunction,ComponentPad*%
%ADD11C,1.700000*%
%TD*%
%TA.AperFunction,SMDPad,CuDef*%
%ADD12RoundRect,0.250000X0.450000X-0.262500X0.450000X0.262500X-0.450000X0.262500X-0.450000X-0.262500X0*%
%TD*%
%TA.AperFunction,ComponentPad*%
%ADD13R,1.800000X1.800000*%
%TD*%
%TA.AperFunction,ComponentPad*%
%ADD14C,1.800000*%
%TD*%
%TA.AperFunction,ViaPad*%
%ADD15C,0.600000*%
%TD*%
%TA.AperFunction,Conductor*%
%ADD16C,0.500000*%
%TD*%
G04 APERTURE END LIST*
D10*
%TO.P,U1,1,1-VIN*%
%TO.N,+5V*%
X173800000Y-60900000D03*
D11*
%TO.P,U1,2,2-GND*%
%TO.N,GND*%
X171260000Y-60900000D03*
%TD*%
D12*
%TO.P,R1,1*%
%TO.N,Net-(D1-K)*%
X178000000Y-66500000D03*
%TO.P,R1,2*%
%TO.N,GND*%
X178000000Y-64675000D03*
%TD*%
D10*
%TO.P,J1,1,Pin_1*%
%TO.N,+5V*%
X165717500Y-66350000D03*
D11*
%TO.P,J1,2,Pin_2*%
%TO.N,GND*%
X165717500Y-63810000D03*
%TD*%
D13*
%TO.P,D1,1,K*%
%TO.N,Net-(D1-K)*%
X175000000Y-70000000D03*
D14*
%TO.P,D1,2,A*%
%TO.N,+5V*%
X172460000Y-70000000D03*
%TD*%
D15*
%TO.N,+5V*%
X178000000Y-69000000D03*
%TD*%
D16*
%TO.N,+5V*%
X178000000Y-72500000D02*
X178000000Y-69000000D01*
X170500000Y-73000000D02*
X177500000Y-73000000D01*
X177500000Y-73000000D02*
X178000000Y-72500000D01*
X169150000Y-71650000D02*
X170500000Y-73000000D01*
X169150000Y-66690000D02*
X169150000Y-71650000D01*
%TO.N,Net-(D1-K)*%
X175000000Y-69500000D02*
X178000000Y-66500000D01*
X175000000Y-70000000D02*
X175000000Y-69500000D01*
%TO.N,+5V*%
X172460000Y-70000000D02*
X169150000Y-66690000D01*
X169150000Y-66690000D02*
X169150000Y-66350000D01*
X169150000Y-66350000D02*
X165717500Y-66350000D01*
X173800000Y-60900000D02*
X173800000Y-61700000D01*
%TD*%
%TA.AperFunction,Conductor*%
%TO.N,GND*%
G36*
X180955504Y-50520185D02*
G01*
X181001259Y-50572989D01*
X181012440Y-50622020D01*
X181487460Y-74373020D01*
X181469120Y-74440440D01*
X181417242Y-74487242D01*
X181363485Y-74499500D01*
X163611535Y-74499500D01*
X163544496Y-74479815D01*
X163498741Y-74427011D01*
X163487560Y-74377979D01*
X163309000Y-65449983D01*
X164117000Y-65449983D01*
X164117000Y-67250001D01*
X164117001Y-67250018D01*
X164127500Y-67352796D01*
X164127501Y-67352799D01*
X164167534Y-67473609D01*
X164182686Y-67519334D01*
X164274788Y-67668656D01*
X164398844Y-67792712D01*
X164548166Y-67884814D01*
X164714703Y-67939999D01*
X164817491Y-67950500D01*
X166617508Y-67950499D01*
X166720297Y-67939999D01*
X166886834Y-67884814D01*
X167036156Y-67792712D01*
X167160212Y-67668656D01*
X167252314Y-67519334D01*
X167280095Y-67435495D01*
X167319868Y-67378051D01*
X167384384Y-67351228D01*
X167397801Y-67350500D01*
X168025500Y-67350500D01*
X168092539Y-67370185D01*
X168138294Y-67422989D01*
X168149500Y-67474500D01*
X168149500Y-71748541D01*
X168149500Y-71748543D01*
X168149499Y-71748543D01*
X168187947Y-71941829D01*
X168187950Y-71941839D01*
X168263364Y-72123907D01*
X168263371Y-72123920D01*
X168372859Y-72287780D01*
X168372860Y-72287781D01*
X168372861Y-72287782D01*
X168512218Y-72427139D01*
X168512219Y-72427139D01*
X168519286Y-72434206D01*
X168519285Y-72434206D01*
X168519288Y-72434208D01*
X169722860Y-73637781D01*
X169722861Y-73637782D01*
X169862218Y-73777139D01*
X169862219Y-73777140D01*
X170026079Y-73886628D01*
X170026092Y-73886635D01*
X170154833Y-73939961D01*
X170197744Y-73957735D01*
X170208164Y-73962051D01*
X170304812Y-73981275D01*
X170353135Y-73990887D01*
X170401458Y-74000500D01*
X170401459Y-74000500D01*
X177598542Y-74000500D01*
X177629566Y-73994328D01*
X177695188Y-73981275D01*
X177791836Y-73962051D01*
X177845165Y-73939961D01*
X177973914Y-73886632D01*
X178137782Y-73777139D01*
X178277139Y-73637782D01*
X178277140Y-73637779D01*
X178284206Y-73630714D01*
X178284209Y-73630710D01*
X178637778Y-73277141D01*
X178637782Y-73277139D01*
X178777139Y-73137782D01*
X178886632Y-72973914D01*
X178962051Y-72791835D01*
X179000500Y-72598541D01*
X179000500Y-69354334D01*
X179008842Y-69312397D01*
X179008361Y-69312251D01*
X179009845Y-69307357D01*
X179009941Y-69306877D01*
X179010128Y-69306424D01*
X179010130Y-69306420D01*
X179050500Y-69103465D01*
X179050500Y-68896535D01*
X179010130Y-68693580D01*
X178930941Y-68502402D01*
X178815977Y-68330345D01*
X178815975Y-68330342D01*
X178669657Y-68184024D01*
X178497596Y-68069057D01*
X178334642Y-68001560D01*
X178280239Y-67957719D01*
X178258174Y-67891425D01*
X178275453Y-67823725D01*
X178326591Y-67776115D01*
X178382095Y-67762999D01*
X178508028Y-67762999D01*
X178508036Y-67762999D01*
X178627418Y-67752386D01*
X178823049Y-67696409D01*
X179003407Y-67602198D01*
X179161109Y-67473609D01*
X179289698Y-67315907D01*
X179383909Y-67135549D01*
X179439886Y-66939918D01*
X179450500Y-66820537D01*
X179450499Y-66179464D01*
X179439886Y-66060082D01*
X179383909Y-65864451D01*
X179289698Y-65684093D01*
X179161109Y-65526391D01*
X179161107Y-65526389D01*
X179161106Y-65526388D01*
X179116835Y-65490290D01*
X179077318Y-65432669D01*
X179075226Y-65362831D01*
X179089658Y-65329090D01*
X179134355Y-65256626D01*
X179134358Y-65256619D01*
X179189505Y-65090197D01*
X179189506Y-65090190D01*
X179199999Y-64987486D01*
X179200000Y-64987473D01*
X179200000Y-64925000D01*
X176800001Y-64925000D01*
X176800001Y-64987486D01*
X176810494Y-65090197D01*
X176865641Y-65256619D01*
X176865643Y-65256624D01*
X176910342Y-65329091D01*
X176928782Y-65396483D01*
X176907860Y-65463147D01*
X176883165Y-65490289D01*
X176838893Y-65526388D01*
X176710304Y-65684090D01*
X176616089Y-65864454D01*
X176560114Y-66060083D01*
X176560113Y-66060086D01*
X176549500Y-66179466D01*
X176549500Y-66484216D01*
X176529815Y-66551255D01*
X176513181Y-66571897D01*
X174771897Y-68313181D01*
X174710574Y-68346666D01*
X174684216Y-68349500D01*
X174049998Y-68349500D01*
X174049980Y-68349501D01*
X173947203Y-68360000D01*
X173947200Y-68360001D01*
X173780668Y-68415185D01*
X173780663Y-68415187D01*
X173631345Y-68507287D01*
X173530380Y-68608252D01*
X173469057Y-68641736D01*
X173399365Y-68636752D01*
X173369816Y-68620889D01*
X173325051Y-68588366D01*
X173093576Y-68470422D01*
X172846493Y-68390140D01*
X172589902Y-68349500D01*
X172589897Y-68349500D01*
X172330103Y-68349500D01*
X172330101Y-68349500D01*
X172301269Y-68354066D01*
X172231976Y-68345109D01*
X172194193Y-68319273D01*
X170183087Y-66308167D01*
X170149602Y-66246844D01*
X170149151Y-66244677D01*
X170145807Y-66227870D01*
X170112051Y-66058165D01*
X170112049Y-66058160D01*
X170036635Y-65876092D01*
X170036628Y-65876079D01*
X169927139Y-65712218D01*
X169927136Y-65712214D01*
X169787785Y-65572863D01*
X169787781Y-65572860D01*
X169623920Y-65463371D01*
X169623907Y-65463364D01*
X169441839Y-65387950D01*
X169441829Y-65387947D01*
X169248543Y-65349500D01*
X169248541Y-65349500D01*
X167397801Y-65349500D01*
X167330762Y-65329815D01*
X167285007Y-65277011D01*
X167280095Y-65264504D01*
X167252314Y-65180666D01*
X167160212Y-65031344D01*
X167036156Y-64907288D01*
X166886834Y-64815186D01*
X166886828Y-64815184D01*
X166861712Y-64806861D01*
X166804268Y-64767088D01*
X166777446Y-64702572D01*
X166789762Y-64633796D01*
X166800401Y-64616270D01*
X166872120Y-64517558D01*
X166951121Y-64362513D01*
X176800000Y-64362513D01*
X176800000Y-64425000D01*
X177750000Y-64425000D01*
X178250000Y-64425000D01*
X179199999Y-64425000D01*
X179199999Y-64362528D01*
X179199998Y-64362513D01*
X179189505Y-64259802D01*
X179134358Y-64093380D01*
X179134356Y-64093375D01*
X179042315Y-63944154D01*
X178918345Y-63820184D01*
X178769124Y-63728143D01*
X178769119Y-63728141D01*
X178602697Y-63672994D01*
X178602690Y-63672993D01*
X178499986Y-63662500D01*
X178250000Y-63662500D01*
X178250000Y-64425000D01*
X177750000Y-64425000D01*
X177750000Y-63662500D01*
X177500029Y-63662500D01*
X177500012Y-63662501D01*
X177397302Y-63672994D01*
X177230880Y-63728141D01*
X177230875Y-63728143D01*
X177081654Y-63820184D01*
X176957684Y-63944154D01*
X176865643Y-64093375D01*
X176865641Y-64093380D01*
X176810494Y-64259802D01*
X176810493Y-64259809D01*
X176800000Y-64362513D01*
X166951121Y-64362513D01*
X166968596Y-64328216D01*
X166970927Y-64321043D01*
X167034257Y-64126130D01*
X167034257Y-64126127D01*
X167067500Y-63916246D01*
X167067500Y-63703753D01*
X167034257Y-63493872D01*
X167034257Y-63493869D01*
X166968595Y-63291782D01*
X166872124Y-63102449D01*
X166832770Y-63048282D01*
X166832769Y-63048282D01*
X166200462Y-63680589D01*
X166183425Y-63617007D01*
X166117599Y-63502993D01*
X166024507Y-63409901D01*
X165910493Y-63344075D01*
X165846909Y-63327037D01*
X166479216Y-62694728D01*
X166425050Y-62655375D01*
X166235717Y-62558904D01*
X166033629Y-62493242D01*
X165823746Y-62460000D01*
X165611254Y-62460000D01*
X165401372Y-62493242D01*
X165401369Y-62493242D01*
X165199282Y-62558904D01*
X165009939Y-62655380D01*
X164955782Y-62694727D01*
X164955782Y-62694728D01*
X165588091Y-63327037D01*
X165524507Y-63344075D01*
X165410493Y-63409901D01*
X165317401Y-63502993D01*
X165251575Y-63617007D01*
X165234537Y-63680591D01*
X164602228Y-63048282D01*
X164602227Y-63048282D01*
X164562880Y-63102439D01*
X164466404Y-63291782D01*
X164400742Y-63493869D01*
X164400742Y-63493872D01*
X164367500Y-63703753D01*
X164367500Y-63916246D01*
X164400742Y-64126127D01*
X164400742Y-64126130D01*
X164466404Y-64328217D01*
X164562879Y-64517557D01*
X164634598Y-64616271D01*
X164658078Y-64682077D01*
X164642252Y-64750131D01*
X164592146Y-64798826D01*
X164573288Y-64806861D01*
X164548168Y-64815185D01*
X164548163Y-64815187D01*
X164398842Y-64907289D01*
X164274789Y-65031342D01*
X164182687Y-65180663D01*
X164182686Y-65180666D01*
X164127501Y-65347203D01*
X164127501Y-65347204D01*
X164127500Y-65347204D01*
X164117000Y-65449983D01*
X163309000Y-65449983D01*
X163308987Y-65449313D01*
X163254890Y-62744467D01*
X163254890Y-62744466D01*
X163215876Y-60793753D01*
X169910000Y-60793753D01*
X169910000Y-61006246D01*
X169943242Y-61216127D01*
X169943242Y-61216130D01*
X170008904Y-61418217D01*
X170105375Y-61607550D01*
X170144728Y-61661716D01*
X170777037Y-61029408D01*
X170794075Y-61092993D01*
X170859901Y-61207007D01*
X170952993Y-61300099D01*
X171067007Y-61365925D01*
X171130589Y-61382962D01*
X170498282Y-62015269D01*
X170498282Y-62015270D01*
X170552449Y-62054624D01*
X170741782Y-62151095D01*
X170943870Y-62216757D01*
X171153754Y-62250000D01*
X171366246Y-62250000D01*
X171576127Y-62216757D01*
X171576130Y-62216757D01*
X171778217Y-62151095D01*
X171967558Y-62054620D01*
X172066270Y-61982901D01*
X172132076Y-61959420D01*
X172200130Y-61975245D01*
X172248825Y-62025350D01*
X172256861Y-62044212D01*
X172265184Y-62069328D01*
X172265186Y-62069334D01*
X172357288Y-62218656D01*
X172481344Y-62342712D01*
X172630666Y-62434814D01*
X172797203Y-62489999D01*
X172899991Y-62500500D01*
X173159563Y-62500499D01*
X173226602Y-62520183D01*
X173228454Y-62521397D01*
X173326079Y-62586628D01*
X173326092Y-62586635D01*
X173508160Y-62662049D01*
X173508165Y-62662051D01*
X173508169Y-62662051D01*
X173508170Y-62662052D01*
X173701456Y-62700500D01*
X173701459Y-62700500D01*
X173898543Y-62700500D01*
X174028582Y-62674632D01*
X174091835Y-62662051D01*
X174273914Y-62586632D01*
X174371545Y-62521397D01*
X174438222Y-62500519D01*
X174440436Y-62500499D01*
X174700002Y-62500499D01*
X174700008Y-62500499D01*
X174802797Y-62489999D01*
X174969334Y-62434814D01*
X175118656Y-62342712D01*
X175242712Y-62218656D01*
X175334814Y-62069334D01*
X175389999Y-61902797D01*
X175400500Y-61800009D01*
X175400499Y-59999992D01*
X175389999Y-59897203D01*
X175334814Y-59730666D01*
X175242712Y-59581344D01*
X175118656Y-59457288D01*
X174969334Y-59365186D01*
X174802797Y-59310001D01*
X174802795Y-59310000D01*
X174700010Y-59299500D01*
X172899998Y-59299500D01*
X172899981Y-59299501D01*
X172797203Y-59310000D01*
X172797200Y-59310001D01*
X172630668Y-59365185D01*
X172630663Y-59365187D01*
X172481342Y-59457289D01*
X172357289Y-59581342D01*
X172265187Y-59730663D01*
X172265185Y-59730668D01*
X172256861Y-59755788D01*
X172217086Y-59813231D01*
X172152569Y-59840052D01*
X172083794Y-59827735D01*
X172066271Y-59817098D01*
X171967557Y-59745379D01*
X171778217Y-59648904D01*
X171576129Y-59583242D01*
X171366246Y-59550000D01*
X171153754Y-59550000D01*
X170943872Y-59583242D01*
X170943869Y-59583242D01*
X170741782Y-59648904D01*
X170552439Y-59745380D01*
X170498282Y-59784727D01*
X170498282Y-59784728D01*
X171130591Y-60417037D01*
X171067007Y-60434075D01*
X170952993Y-60499901D01*
X170859901Y-60592993D01*
X170794075Y-60707007D01*
X170777037Y-60770591D01*
X170144728Y-60138282D01*
X170144727Y-60138282D01*
X170105380Y-60192439D01*
X170008904Y-60381782D01*
X169943242Y-60583869D01*
X169943242Y-60583872D01*
X169910000Y-60793753D01*
X163215876Y-60793753D01*
X163215828Y-60791360D01*
X163196690Y-59834467D01*
X163012540Y-50626980D01*
X163030880Y-50559560D01*
X163082758Y-50512758D01*
X163136515Y-50500500D01*
X180888465Y-50500500D01*
X180955504Y-50520185D01*
G37*
%TD.AperFunction*%
%TD*%
M02*
